<!-- Xenotype faction rosters: loose xenotype hexagons bussed down into a faction
     standard that carries one of them. The hexagon is RimWorld's gene shape, kept
     identical to the gene-dedup icon; the clipped corner echoes the design
     system's corner ticks. -->
<svg viewBox="0 0 48 48" fill="none" xmlns="http://www.w3.org/2000/svg">
  <path d="M11 6 15.3 8.5 15.3 13.5 11 16 6.7 13.5 6.7 8.5Z" stroke="var(--c-accent-700, #9a6612)" stroke-width="1.5"/>
  <path d="M37 6 41.3 8.5 41.3 13.5 37 16 32.7 13.5 32.7 8.5Z" stroke="var(--c-accent-700, #9a6612)" stroke-width="1.5"/>

  <path d="M11 16V19H24" stroke="var(--c-accent-700, #9a6612)" stroke-width="1.5"/>
  <path d="M37 16V19H24" stroke="var(--c-accent-700, #9a6612)" stroke-width="1.5"/>
  <path d="M24 19V22" stroke="var(--c-accent-500, #efa62c)" stroke-width="2"/>

  <path d="M12 22H30L36 28V38H12Z" fill="color-mix(in srgb, var(--c-accent-500, #efa62c) 16%, transparent)" stroke="var(--c-accent-400, #ffc35c)" stroke-width="2"/>
  <path d="M24 25 28.3 27.5 28.3 32.5 24 35 19.7 32.5 19.7 27.5Z" stroke="var(--c-accent-500, #efa62c)" stroke-width="1.5"/>

  <path d="M24 38V44M18 44H30" stroke="var(--c-accent-400, #ffc35c)" stroke-width="2"/>
</svg>
